<svg t="1581585647508" class="icon" viewBox="0 0 1024 1024" version="1.1" xmlns="http://www.w3.org/2000/svg" p-id="7319" width="200" height="200"><path d="M194.56 725.333H819.2l76.8 122.88c30.72 49.494 8.533 90.454-49.493 90.454H162.133c-59.733 0-80.213-39.254-47.786-88.747l80.213-124.587z" fill="#DAE9FF" p-id="7320"></path><path d="M940.373 469.333l-373.76-368.64c-8.533-8.533-56.32-13.653-66.56-13.653-10.24 0 6.827 18.773-1.706 25.6L110.933 494.933c-25.6 23.894-6.826 68.267 29.014 68.267H204.8c22.187 0 23.893 17.067 23.893 39.253l-15.36 247.467c0 22.187 49.494 29.013 71.68 29.013H783.36c22.187 0 54.613-27.306 54.613-49.493V602.453c0-22.186 3.414-58.026 23.894-58.026h51.2c37.546 0 54.613-51.2 27.306-75.094z" fill="#DAE9FF" p-id="7321"></path><path d="M911.36 479.573L525.653 98.987c-8.533-8.534-18.773-13.654-29.013-13.654-10.24 0-20.48 3.414-29.013 11.947L80.213 479.573c-25.6 23.894-6.826 68.267 29.014 68.267h64.853c22.187 0 23.893 17.067 23.893 39.253v250.88c0 22.187 32.427 39.254 54.614 39.254h498.346c22.187 0 54.614-17.067 54.614-39.254v-250.88c0-22.186 3.413-39.253 23.893-39.253h51.2c39.253 0 58.027-44.373 30.72-68.267z" fill="#3889FF" p-id="7322"></path><path d="M395.947 655.36h87.04v-35.84h-87.04c-23.894 0-35.84-20.48-35.84-35.84 0-15.36 11.946-23.893 35.84-23.893h63.146l-76.8-119.467c-6.826-10.24-10.24-17.067-11.946-20.48-1.707-3.413-3.414-8.533-3.414-13.653 0-8.534 3.414-15.36 8.534-20.48 5.12-5.12 11.946-8.534 20.48-8.534s15.36 3.414 20.48 8.534c5.12 5.12 11.946 13.653 18.773 25.6l81.92 128 73.387-121.174c3.413-5.12 5.12-10.24 8.533-15.36 3.413-5.12 6.827-10.24 8.533-13.653 3.414-3.413 6.827-6.827 10.24-8.533 5.12-1.707 10.24-3.414 15.36-3.414 8.534 0 15.36 3.414 20.48 8.534 5.12 5.12 8.534 11.946 8.534 18.773 0 5.12-1.707 11.947-3.414 17.067-1.706 5.12-5.12 10.24-10.24 18.773l-73.386 121.173h63.146c23.894 0 35.84 13.654 35.84 29.014s-11.946 30.72-35.84 30.72h-88.746v35.84h88.746c23.894 0 35.84 13.653 35.84 30.72 0 15.36-11.946 30.72-35.84 30.72h-88.746v5.12c0 34.133-11.947 42.666-34.134 42.666-23.893 0-34.133-8.533-34.133-42.666v-5.12h-87.04c-23.893 0-35.84-20.48-35.84-35.84 0-18.774 11.947-27.307 37.547-27.307z" fill="#DAE9FF" p-id="7323"></path><path d="M373.76 655.36h87.04v-35.84h-87.04c-23.893 0-35.84-15.36-35.84-30.72s11.947-29.013 35.84-29.013h63.147l-76.8-119.467c-6.827-10.24-10.24-17.067-11.947-20.48-1.707-3.413-3.413-8.533-3.413-13.653 0-8.534 3.413-15.36 8.533-20.48 5.12-5.12 11.947-8.534 20.48-8.534s15.36 3.414 20.48 8.534c5.12 5.12 11.947 13.653 18.773 25.6l81.92 128 73.387-121.174c3.413-5.12 5.12-10.24 8.533-15.36 3.414-5.12 6.827-10.24 8.534-13.653 3.413-3.413 6.826-6.827 10.24-8.533 5.12-1.707 10.24-3.414 15.36-3.414 8.533 0 15.36 3.414 20.48 8.534 5.12 5.12 8.533 11.946 8.533 18.773 0 5.12-1.707 11.947-3.413 17.067-1.707 5.12-5.12 10.24-10.24 18.773L552.96 561.493h63.147c23.893 0 35.84 13.654 35.84 29.014s-11.947 30.72-35.84 30.72H527.36v35.84h88.747c23.893 0 35.84 13.653 35.84 29.013 0 15.36-11.947 30.72-35.84 30.72H527.36v5.12c0 34.133-11.947 42.667-34.133 42.667-23.894 0-34.134-8.534-34.134-42.667v-5.12h-87.04c-23.893 0-35.84-15.36-35.84-30.72 1.707-17.067 13.654-30.72 37.547-30.72z" fill="#FFFFFF" p-id="7324"></path></svg>