<svg t="1581909459566" class="icon" viewBox="0 0 1024 1024" version="1.1" xmlns="http://www.w3.org/2000/svg" p-id="5469" width="200" height="200"><path d="M438.493567 345.824561c-8.383626 0-15.120468-6.736842-15.120468-15.120467s6.736842-15.120468 15.120468-15.120468h47.157895L429.061988 270.97076c-6.437427-5.090058-7.635088-14.671345-2.545029-21.108772 5.239766-6.587135 14.671345-7.635088 21.25848-2.395321l62.42807 49.253801 66.021052-49.553217c6.587135-4.940351 16.018713-3.74269 21.108772 2.994153 4.940351 6.587135 3.592982 16.168421-2.994152 21.108771l-59.28421 44.463158H585.356725c8.383626 0 15.120468 6.736842 15.120468 15.120468s-6.736842 15.120468-15.120468 15.120468h-58.385965v41.469006h58.385965c8.383626 0 15.120468 6.736842 15.120468 15.120468S593.740351 417.684211 585.356725 417.684211h-58.385965v48.954385c0 8.383626-6.736842 15.120468-15.120468 15.120468s-15.120468-6.736842-15.120467-15.120468V417.684211h-58.385965c-8.383626 0-15.120468-6.736842-15.120468-15.120468s6.736842-15.120468 15.120468-15.120468h58.385965V345.824561h-58.236258z" fill="#0641BF" p-id="5470"></path><path d="M512 0C229.202339 0 0 229.202339 0 512c0 31.438596 2.844444 62.128655 8.233918 91.920468h626.376608c17.066667 0.149708 39.373099 7.784795 52.547369 25.899415-1.347368 11.677193-6.138012 21.408187-15.120468 29.941521-46.559064 44.463158-180.098246 40.421053-227.705263 35.031578-12.126316-1.497076-22.905263 7.335673-24.252632 19.312281-1.347368 11.976608 7.335673 22.905263 19.312281 24.252632 7.185965 0.748538 35.181287 3.74269 71.111111 3.74269 61.978947 0 147.611696-8.533333 191.775439-50.60117 16.767251-16.018713 26.049123-36.079532 28.294736-58.535672l67.069006-18.863158c22.306433-5.389474 62.577778-5.539181 75.752047 26.19883 12.874854 30.989474 4.042105 65.57193-22.605848 88.477193-36.079532 30.839766-221.417544 150.755556-277.85731 160.187135-8.683041 1.197661-18.264327 1.796491-28.594152 1.796491-88.626901 0-231.447953-43.415205-349.866667-82.788304-3.14386-1.047953-5.838596-2.994152-7.934502-5.389474H90.423392C182.792982 936.421053 337.14152 1024 512 1024c282.797661 0 512-229.202339 512-512S794.797661 0 512 0z m-0.149708 561.702924c-112.729825 0-204.20117-91.471345-204.201169-204.20117 0-112.729825 91.471345-204.20117 204.201169-204.201169s204.20117 91.471345 204.20117 204.201169c0 112.729825-91.471345 204.20117-204.20117 204.20117z" fill="#0641BF" p-id="5471"></path></svg>