<svg t="1581585668741" class="icon" viewBox="0 0 1024 1024" version="1.1" xmlns="http://www.w3.org/2000/svg" p-id="8101" width="200" height="200"><path d="M768 64H256c-70.4 0-128 57.6-128 128v640c0 70.4 57.6 128 128 128h288v-64H256c-38.4 0-64-25.6-64-64V192c0-38.4 25.6-64 64-64h512c38.4 0 64 25.6 64 64v384h64V192c0-70.4-57.6-128-128-128z" fill="#00CA8A" p-id="8102"></path><path d="M352 288h320v64h-320zM352 480h320v64h-320zM352 672h192v64h-192zM806.4 780.8L768 704l-38.4 76.8-83.2 12.8 57.6 57.6-12.8 83.2L768 896l76.8 38.4-12.8-83.2 57.6-57.6z" fill="#00CA8A" p-id="8103"></path></svg>