<svg t="1581909121897" class="icon" viewBox="0 0 1024 1024" version="1.1" xmlns="http://www.w3.org/2000/svg" p-id="2024" width="200" height="200"><path d="M373.76 384H665.6c15.36 0 25.6-10.24 25.6-25.6 0-5.12 0-15.36-5.12-20.48-5.12-5.12-10.24-5.12-20.48-5.12H373.76c-5.12 0-15.36 0-20.48 5.12 0 10.24-5.12 15.36-5.12 20.48 0 15.36 10.24 25.6 25.6 25.6zM527.36 558.08H363.52c-10.24 0-15.36 10.24-15.36 25.6s10.24 25.6 15.36 25.6h158.72c10.24 0 15.36-10.24 15.36-25.6 5.12-15.36-5.12-25.6-10.24-25.6zM727.04 696.32l-15.36-30.72c-5.12-10.24-20.48-10.24-25.6 0l-15.36 30.72-35.84 5.12c-5.12 0-10.24 5.12-10.24 10.24s0 10.24 5.12 10.24l30.72 25.6-5.12 35.84c0 5.12 0 10.24 5.12 10.24 0 0 10.24 5.12 15.36 0l30.72-15.36 30.72 15.36h10.24c5.12-5.12 5.12-5.12 5.12-10.24v-35.84l25.6-25.6c5.12-5.12 5.12-10.24 5.12-15.36l-10.24-10.24h-46.08z" fill="#26C6A1" p-id="2025"></path><path d="M512 0C230.4 0 0 230.4 0 512s230.4 512 512 512 512-230.4 512-512S793.6 0 512 0zM302.08 824.32c-25.6 0-46.08-20.48-46.08-46.08V250.88c0-25.6 20.48-46.08 46.08-46.08H614.4c15.36 0 30.72 5.12 40.96 15.36l107.52 107.52c10.24 10.24 15.36 30.72 15.36 40.96v240.64c-25.6-20.48-46.08-35.84-87.04-35.84-87.04 0-158.72 71.68-158.72 153.6 0 40.96 15.36 66.56 40.96 92.16H302.08z m476.16-10.24c-20.48 25.6-51.2 35.84-87.04 35.84-30.72 0-61.44-10.24-87.04-35.84-25.6-20.48-35.84-51.2-35.84-87.04 0-30.72 10.24-61.44 35.84-87.04 20.48-25.6 51.2-35.84 87.04-35.84 30.72 0 61.44 10.24 87.04 35.84 25.6 20.48 35.84 51.2 35.84 87.04s-10.24 66.56-35.84 87.04z" fill="#26C6A1" p-id="2026"></path><path d="M373.76 496.64H665.6c15.36 0 25.6-10.24 25.6-25.6 0-5.12 0-15.36-5.12-20.48-5.12-5.12-10.24-5.12-20.48-5.12H373.76c-5.12 0-15.36 0-20.48 5.12 0 5.12-5.12 15.36-5.12 20.48 0 15.36 10.24 25.6 25.6 25.6z" fill="#26C6A1" p-id="2027"></path></svg>