<?xml version="1.0" standalone="no"?><!DOCTYPE svg PUBLIC "-//W3C//DTD SVG 1.1//EN" "http://www.w3.org/Graphics/SVG/1.1/DTD/svg11.dtd"><svg class="icon" width="200px" height="200.00px" viewBox="0 0 1024 1024" version="1.1" xmlns="http://www.w3.org/2000/svg"><path fill="#8580FF" d="M511.941672 959.469288c-62.793138 0-123.697253-8.908904-181.022866-26.479071-55.56655-17.031908-104.875582-41.252543-146.555867-71.990614-16.373922-12.076036-19.859303-35.139312-7.78429-51.513234 12.075013-16.374946 35.138288-19.860327 51.513234-7.78429 72.465428 53.44012 175.924755 84.089164 283.84979 84.089164 51.779294 0 102.130052-6.848988 149.652392-20.357654 45.036729-12.801561 85.46551-30.943756 120.163777-53.925167 32.912597-21.799492 59.679217-47.720861 77.405951-74.961272 17.441231-26.804483 26.285666-54.553477 26.285666-82.473363 0-35.010375-16.951067-81.660858-47.732118-131.357723-31.573089-50.978045-75.322499-102.373599-126.519532-148.630109-8.467859-7.65126-12.912078-18.795065-12.032034-30.17423 0.87902-11.379165 6.983041-21.707394 16.526395-27.965935 48.76054-31.976272 61.769832-55.717999 61.769832-64.705698 0-17.364483-17.962094-45.023426-68.373227-70.573335-52.526307-26.621311-124.383892-41.890063-197.147102-41.890063-72.763211 0-144.620795 15.267728-197.147102 41.890063-50.412157 25.549909-68.37425 53.208852-68.37425 70.573335 0 8.987698 13.009292 32.729425 61.769832 64.705698 9.544377 6.258541 15.648398 16.58677 16.527418 27.965935 0.87902 11.379165-3.564175 22.522969-12.032034 30.17423-51.196009 46.257533-94.945419 97.652064-126.519532 148.630109-30.780027 49.696866-47.732118 96.347348-47.732118 131.357723 0 20.564361 4.858658 41.218774 14.440897 61.392232 8.728802 18.378579 0.907673 40.353057-17.469883 49.081858-18.377556 8.732895-40.353057 0.908696-49.081858-17.46886-14.310937-30.128181-21.567201-61.419861-21.567201-93.00523 0-49.234331 20.322861-108.072391 58.772568-170.152285 28.210505-45.547359 64.886823-91.159186 107.334587-133.663232-38.60525-32.654724-58.120722-65.848731-58.120722-99.018178 0-27.582195 11.342326-55.204299 32.801057-79.881328 18.49012-21.263279 44.041052-40.24254 75.942623-56.410777 63.424518-32.145118 145.268548-49.848315 230.454696-49.848315s167.030178 17.703197 230.454696 49.848315c31.902594 16.168238 57.453527 35.147498 75.942623 56.410777 21.459754 24.677029 32.80208 52.299133 32.80208 79.881328 0 33.169447-19.515473 66.363454-58.121745 99.018178 42.447764 42.504046 79.124082 88.115873 107.33561 133.663232 38.448684 62.079894 58.772568 120.917954 58.772568 170.152285 0 42.426275-12.854772 83.694167-38.20923 122.656551-23.508413 36.128849-56.641021 68.496024-98.474802 96.204086C738.188532 928.737356 627.91808 959.469288 511.941672 959.469288zM661.198044 545.899064c11.819187 0 21.48943-9.670244 21.48943-21.48943l0-22.512736c0-11.819187-9.670244-21.48943-21.48943-21.48943l-76.677357 0 75.928297-75.928297c8.357342-8.357342 8.357342-22.032806 0-30.390147l-12.101619-12.101619c-8.357342-8.357342-22.032806-8.357342-30.390147 0L511.188518 468.75508 404.420843 361.987405c-8.357342-8.357342-22.032806-8.357342-30.390147 0l-12.101619 12.101619c-8.357342 8.357342-8.357342 22.032806 0 30.390147l75.928297 75.928297-75.17105 0c-11.819187 0-21.48943 9.670244-21.48943 21.48943l0 22.512736c0 11.819187 9.670244 21.48943 21.48943 21.48943l112.124683 0 0 35.815717L362.685299 581.714781c-11.819187 0-21.48943 9.670244-21.48943 21.48943l0 22.512736c0 11.819187 9.670244 21.48943 21.48943 21.48943l112.124683 0 0 118.703519c0 20.261463 16.57756 36.839023 36.839023 36.839023l0 0c20.261463 0 36.839023-16.57756 36.839023-36.839023l0-118.703519 112.710015 0c11.819187 0 21.48943-9.670244 21.48943-21.48943l0-22.512736c0-11.819187-9.670244-21.48943-21.48943-21.48943L548.489052 581.714781l0-35.815717L661.198044 545.899064z" /></svg>