<svg t="1581909240830" class="icon" viewBox="0 0 1024 1024" version="1.1" xmlns="http://www.w3.org/2000/svg" p-id="3717" width="200" height="200"><path d="M512 1024c282.767059 0 512-229.232941 512-512S794.767059 0 512 0 0 229.232941 0 512s229.232941 512 512 512z m0-30.117647c-266.134588 0-481.882353-215.747765-481.882353-481.882353C30.117647 245.865412 245.865412 30.117647 512 30.117647c266.134588 0 481.882353 215.747765 481.882353 481.882353 0 266.134588-215.747765 481.882353-481.882353 481.882353zM367.435294 720.361412c-32.120471 0-32.120471-16.090353-32.12047-32.256-0.015059-121.6 0.030118-104.274824 0-144.564706-0.007529-9.072941 0-16.060235 16.060235-32.128 48.188235-48.188235 92.694588-77.718588 145.114353-123.068235 10.541176-9.118118 22.106353-9.148235 32.64-0.037647 52.495059 45.409882 79.247059 74.917647 143.503059 123.105882 18.319059 13.741176 16.060235 23.318588 16.060235 32.128-0.022588 40.606118 0.015059 22.648471 0 144.564706 0 15.307294-17.746824 32.248471-32.128 32.256-31.096471 0.030118-47.247059 0-78.336 0 0 0-131.312941-1.799529-131.312941 0H367.435294zM276.909176 483.990588c35.516235-29.808941 71.002353-59.655529 106.480942-89.494588 31.457882-26.443294 62.930824-52.886588 94.366117-79.36 22.121412-18.627765 48.828235-18.597647 70.979765 0.045176 66.627765 56.041412 124.672 107.346824 191.171765 163.561412 2.386824 2.025412 4.065882 3.501176 4.065882 3.501177 0.481882 0.655059 3.147294 2.928941 3.561412 3.501176 0.301176 0.414118 0.075294-0.060235 1.686588 3.870118l2.221177 5.820235c0.421647 1.679059 0.752941 1.739294 1.355294 5.918118 0.587294 4.043294-0.549647 11.881412-5.699765 20.495059-6.738824 11.271529-35.011765 0.783059-44.724706-7.341177-2.469647-2.070588 0 0-3.117176-2.590118-57.840941-48.037647-109.967059-95.201882-167.544471-143.600941-1.392941-1.167059-2.763294-2.386824-4.239059-3.425882-10.202353-7.152941-20.781176-6.603294-30.689882 1.716706-39.838118 33.460706-79.661176 66.951529-119.491765 100.442353-19.523765 16.414118-38.866824 33.084235-58.608941 49.204706-1.453176 1.189647-2.447059 1.882353-4.419765 3.049411-3.312941 1.957647-3.275294 2.228706-6.4 3.621647-8.967529 4.005647-19.561412 8.357647-29.424941-2.371764-5.519059-6.000941-12.318118-21.323294-2.093176-35.824941l0.564705-0.737883z m315.407059 74.578824c0-26.774588-21.014588-48.564706-46.810353-48.564706-12.739765 0-24.801882 5.496471-33.505882 14.870588-8.719059-9.381647-20.781176-14.878118-33.505882-14.878118-25.803294 0-46.810353 21.782588-46.810353 48.564706 0 0.903529 0.082824 1.709176 0.158117 2.364236-0.015059 0.218353-0.022588 0.429176-0.022588 0.662588 0 4.743529 1.152 9.946353 3.410824 15.48047l0.225882 0.572236c14.260706 34.213647 69.165176 73.577412 71.499294 75.38447a8.026353 8.026353 0 0 0 9.86353-0.052706c2.010353-1.551059 48.835765-35.260235 67.425882-67.147294 0.707765-1.084235 1.234824-2.123294 1.701647-3.019294 0.143059-0.286118 0.271059-0.579765 0.429176-0.850823l0.060236-0.13553a2.951529 2.951529 0 0 1 0.203294-0.323764c1.114353-2.160941 1.995294-4.178824 2.710588-6.136471 1.92-5.059765 2.861176-9.562353 2.861177-13.763765 0-0.323765 0-0.602353-0.030118-0.850823 0.060235-0.549647 0.135529-1.287529 0.135529-2.18353z" fill="#FB9800" p-id="3718"></path></svg>