<?xml version="1.0" standalone="no"?>
<!DOCTYPE svg PUBLIC "-//W3C//DTD SVG 1.1//EN" "http://www.w3.org/Graphics/SVG/1.1/DTD/svg11.dtd">
<svg t="1580905815063" class="icon" viewBox="0 0 1024 1024" version="1.1" xmlns="http://www.w3.org/2000/svg" p-id="782" data-spm-anchor-id="a313x.7781069.0.i0" xmlns:xlink="http://www.w3.org/1999/xlink" width="50" height="50">
    <defs>
        <style type="text/css"></style>
    </defs>
    <path fill="#6190e8" d="M892.3 925.3c-15.5 0-30.5-6.5-41.4-18.6L759.7 805l-0.6-0.8c-2.7-3.3-6.6-5.2-10.9-5.2H232.1C146.6 799 77 729.5 77 643.9V233.6c0-85.5 69.6-155.1 155.1-155.1h559c85.5 0 155.1 69.6 155.1 155.1v453.8c0 27.7 1.4 125.3 2.2 181.1 0.3 23.5-13.6 44.3-35.5 52.9-6.7 2.6-13.7 3.9-20.6 3.9z m-15.9-55.8s0 0.1 0 0c0 0.1 0 0 0 0z m-61.9-111.2l61.3 68.3c-0.8-58-1.6-117.8-1.6-139.1V233.6c0-22.1-8.7-42.9-24.4-58.7-15.8-15.8-36.6-24.4-58.7-24.4h-559c-22.1 0-42.9 8.7-58.7 24.4-15.8 15.8-24.4 36.6-24.4 58.7v410.3c0 22.1 8.7 42.9 24.4 58.7 15.8 15.8 36.6 24.4 58.7 24.4h516.1c25.8 0 49.9 11.4 66.3 31.3z" p-id="783"></path>
    <path fill="#6190e8" d="M763.5 373.6H274c-19.9 0-36-16.1-36-36s16.1-36 36-36h489.4c19.9 0 36 16.1 36 36s-16.1 36-35.9 36zM590.1 550.2H274c-19.9 0-36-16.1-36-36s16.1-36 36-36h316c19.9 0 36 16.1 36 36 0.1 19.8-16 36-35.9 36z" p-id="784"></path>
</svg>